<svg xmlns="http://www.w3.org/2000/svg" viewBox="0 0 800 360" role="img" aria-label="Un disegno di forme colorate">
  <rect width="800" height="360" fill="#ffffff"/>
  <circle cx="70" cy="80" r="34" fill="#ff9ecf"/>
  <rect x="130" y="44" width="70" height="70" rx="8" fill="#9ea6ff" transform="rotate(9 165 79)"/>
  <polygon points="250,118 290,40 330,118" fill="#a6ff9e"/>
  <path d="M370 78 q34 -54 68 0 q-34 54 -68 0 Z" fill="#ffe79e"/>
  <circle cx="480" cy="80" r="30" fill="none" stroke="#9efff7" stroke-width="12"/>
  <rect x="540" y="46" width="66" height="66" fill="#ff9ecf"/>
  <polygon points="650,40 710,40 680,116" fill="#9ea6ff"/>
  <circle cx="760" cy="80" r="26" fill="#ffe79e"/>
  <rect x="40" y="170" width="80" height="40" rx="20" fill="#a6ff9e"/>
  <circle cx="180" cy="200" r="32" fill="#ffe79e"/>
  <polygon points="250,250 300,170 350,250" fill="#ff9ecf"/>
  <path d="M380 200 q40 -50 80 0" fill="none" stroke="#9ea6ff" stroke-width="12"/>
  <rect x="500" y="168" width="70" height="62" rx="6" fill="#9efff7" transform="rotate(-6 535 199)"/>
  <circle cx="640" cy="200" r="34" fill="none" stroke="#ff9ecf" stroke-width="10"/>
  <polygon points="720,250 760,176 800,250" fill="#a6ff9e"/>
  <circle cx="80" cy="300" r="28" fill="#9ea6ff"/>
  <rect x="150" y="278" width="64" height="52" fill="#ffe79e" transform="rotate(7 182 304)"/>
  <path d="M260 300 q40 -46 80 0 q-40 46 -80 0 Z" fill="#9efff7"/>
  <polygon points="400,330 440,260 480,330" fill="#ff9ecf"/>
  <circle cx="560" cy="300" r="30" fill="#a6ff9e"/>
  <rect x="630" y="276" width="60" height="56" rx="10" fill="#9ea6ff"/>
  <circle cx="740" cy="300" r="24" fill="none" stroke="#ffe79e" stroke-width="12"/>
</svg>
